<?xml version="1.0" standalone="no"?>
<!DOCTYPE svg PUBLIC "-//W3C//DTD SVG 20010904//EN"
 "http://www.w3.org/TR/2001/REC-SVG-20010904/DTD/svg10.dtd">
<svg version="1.0" xmlns="http://www.w3.org/2000/svg"
 width="1677.000000pt" height="1677.000000pt" viewBox="0 0 1677.000000 1677.000000"
 preserveAspectRatio="xMidYMid meet">

<g transform="translate(0.000000,1677.000000) scale(0.100000,-0.100000)"
fill="#000000" stroke="none">
<path d="M8065 15473 c-708 -41 -1291 -151 -1926 -364 -1217 -406 -2244 -1090
-3100 -2064 -956 -1088 -1564 -2496 -1714 -3965 -58 -573 -39 -1231 51 -1775
43 -262 64 -364 120 -591 354 -1450 1112 -2698 2234 -3679 701 -613 1530
-1084 2437 -1384 945 -313 1935 -423 2923 -325 749 74 1561 295 2258 615 705
323 1369 774 1925 1306 l88 84 -253 257 c-139 141 -496 505 -793 807 -510 520
-794 805 -801 805 -1 0 -47 -41 -101 -91 -128 -119 -282 -246 -430 -352 -1040
-745 -2339 -1006 -3598 -721 -506 115 -1032 342 -1475 637 -407 272 -792 636
-1092 1034 -459 608 -760 1346 -857 2104 -112 869 33 1755 415 2529 236 480
508 856 890 1231 217 212 407 367 644 526 910 607 2010 858 3095 707 1664
-232 3055 -1382 3604 -2978 23 -65 41 -120 41 -122 0 -2 -380 -4 -844 -4
l-844 0 -58 103 c-428 757 -1180 1287 -2030 1431 -222 38 -576 49 -784 26
-694 -77 -1310 -378 -1785 -871 -423 -439 -684 -975 -782 -1599 -26 -165 -26
-645 0 -810 71 -456 223 -848 468 -1210 116 -171 198 -270 353 -426 166 -165
259 -241 458 -374 421 -280 926 -446 1428 -468 359 -16 651 18 981 114 703
204 1325 700 1694 1353 l59 104 1385 -4 c763 -2 1751 -3 2197 -1 l810 2 32
193 c66 401 86 670 86 1122 0 601 -55 1078 -190 1645 -346 1453 -1112 2716
-2249 3711 -1274 1115 -2981 1749 -4675 1737 -135 -1 -267 -3 -295 -5z"/>
</g>
</svg>
